<?xml version="1.0" standalone="no"?>
<!DOCTYPE svg PUBLIC "-//W3C//DTD SVG 20010904//EN"
 "http://www.w3.org/TR/2001/REC-SVG-20010904/DTD/svg10.dtd">
<svg version="1.0" xmlns="http://www.w3.org/2000/svg"
 width="512.000000pt" height="512.000000pt" viewBox="0 0 512.000000 512.000000"
 preserveAspectRatio="xMidYMid meet">

<g transform="translate(0.000000,512.000000) scale(0.100000,-0.100000)"
fill="#000000" stroke="none">
<path d="M2466 5101 c-39 -43 -83 -188 -101 -333 -7 -53 -14 -56 -123 -61
l-52 -2 -34 83 c-35 86 -82 164 -137 227 -36 41 -49 42 -156 10 -47 -14 -53
-19 -63 -53 -19 -67 -22 -212 -7 -296 l14 -79 -74 -33 c-41 -19 -77 -34 -82
-34 -4 0 -28 29 -54 64 -50 68 -137 152 -199 194 -45 29 -61 26 -140 -23 l-58
-37 0 -51 c0 -74 23 -173 62 -263 18 -44 33 -82 33 -85 0 -4 -26 -28 -58 -53
l-57 -47 -58 45 c-83 65 -165 112 -239 137 l-65 21 -64 -64 -64 -64 20 -58
c26 -77 81 -174 136 -242 24 -29 44 -57 44 -60 0 -7 -100 -134 -105 -134 -1 0
-31 13 -66 30 -82 38 -207 70 -275 70 -52 0 -54 -1 -84 -45 -17 -25 -37 -60
-45 -79 -14 -32 -13 -36 16 -77 56 -78 189 -205 256 -244 2 -1 -11 -36 -28
-79 -23 -56 -36 -76 -46 -72 -8 4 -55 11 -105 16 -92 11 -241 0 -279 -21 -19
-10 -50 -100 -53 -152 -1 -26 8 -38 57 -78 67 -54 153 -102 230 -128 l52 -18
-2 -64 c-4 -106 -4 -105 -75 -113 -153 -17 -323 -78 -334 -120 -3 -12 -4 -53
-2 -91 l3 -69 40 -23 c62 -35 190 -73 272 -80 88 -7 92 -12 95 -112 l3 -71
-80 -33 c-77 -31 -165 -85 -233 -144 l-34 -28 16 -68 c22 -92 30 -104 79 -118
52 -15 256 -16 317 -1 51 13 47 16 87 -77 l27 -64 -29 -21 c-113 -81 -255
-235 -255 -275 0 -8 19 -46 41 -84 l42 -70 81 6 c88 6 193 35 270 74 27 13 52
21 56 16 4 -4 27 -35 52 -68 l45 -60 -49 -60 c-54 -66 -133 -216 -144 -271 -6
-33 -3 -40 42 -86 71 -72 73 -72 151 -43 82 31 132 60 218 126 l65 50 65 -48
c35 -27 64 -52 65 -58 0 -5 -16 -46 -35 -91 -40 -92 -75 -275 -59 -301 5 -9
41 -34 79 -55 l69 -39 33 18 c53 28 169 139 219 209 l45 64 37 -16 c20 -9 54
-23 75 -31 32 -13 37 -19 32 -37 -14 -45 -16 -280 -3 -336 l13 -55 85 -24 84
-24 48 53 c48 53 124 190 148 264 l12 39 67 -7 c112 -12 107 -9 114 -84 8 -93
33 -186 70 -262 l32 -65 90 0 90 0 28 55 c37 74 66 180 74 267 3 43 11 74 18
77 7 2 44 8 82 11 l68 7 34 -82 c34 -84 111 -208 154 -248 24 -23 24 -23 97
-6 39 9 80 24 90 34 25 25 34 107 27 248 -4 64 -8 127 -9 140 -3 20 7 27 65
53 38 16 72 29 77 29 4 0 33 -34 65 -75 58 -76 152 -163 208 -191 34 -18 49
-14 130 38 47 30 47 30 47 85 0 73 -26 181 -65 274 l-32 76 54 42 c30 23 61
45 69 48 7 3 33 -12 58 -33 79 -70 239 -153 294 -154 32 0 132 99 132 131 0
56 -110 261 -169 313 -11 11 -21 23 -21 29 0 12 92 137 101 137 3 0 35 -13 71
-29 80 -37 164 -59 253 -67 l70 -6 33 51 c46 72 56 104 41 133 -35 68 -117
153 -247 255 l-23 18 30 70 c26 60 33 70 53 67 173 -19 371 -9 390 21 11 17
37 106 40 141 3 25 -5 36 -56 78 -62 49 -183 116 -250 138 l-38 12 7 70 c9 94
11 98 54 98 89 1 299 63 340 101 18 17 21 31 21 90 0 39 -4 78 -10 88 -21 39
-192 98 -317 108 -82 7 -79 2 -89 109 l-6 70 43 13 c67 20 157 68 226 120 84
63 87 70 69 139 -28 111 -26 109 -108 122 -69 12 -226 9 -304 -6 -29 -5 -32
-3 -47 33 -8 21 -22 54 -31 74 l-15 37 69 51 c77 57 164 149 197 208 l22 39
-40 72 c-22 40 -47 76 -56 79 -29 11 -215 -27 -305 -63 -49 -20 -91 -34 -92
-32 -1 1 -24 31 -50 65 l-48 62 40 46 c22 25 56 72 75 104 35 58 87 179 87
201 0 21 -112 130 -134 130 -55 0 -245 -105 -318 -174 l-28 -27 -65 52 c-36
28 -65 54 -65 57 0 3 15 42 34 87 36 84 66 208 66 272 0 42 -19 59 -112 104
l-47 23 -54 -38 c-63 -43 -161 -142 -202 -203 -15 -24 -30 -43 -34 -43 -3 0
-41 14 -84 32 -49 20 -76 36 -73 44 3 7 10 50 16 96 12 84 7 188 -12 264 -9
39 -13 42 -66 58 -105 32 -119 29 -173 -37 -53 -67 -102 -153 -128 -230 l-18
-52 -54 2 c-118 5 -114 2 -128 98 -18 130 -71 285 -105 307 -6 4 -45 8 -87 8
-62 0 -79 -3 -93 -19z m363 -627 c947 -139 1651 -947 1651 -1897 0 -647 -327
-1248 -875 -1610 -232 -153 -493 -250 -785 -293 -171 -25 -470 -15 -638 20
-506 108 -932 394 -1214 815 -157 236 -255 483 -304 776 -26 149 -23 453 4
605 37 204 90 364 177 540 280 560 815 949 1435 1044 131 20 416 20 549 0z"/>
<path d="M2350 4250 c-359 -50 -690 -208 -945 -452 -160 -153 -258 -284 -356
-479 -231 -461 -230 -1029 2 -1491 96 -191 195 -324 354 -476 230 -220 504
-362 836 -434 140 -30 474 -33 614 -5 392 78 715 260 968 545 450 509 551
1234 257 1848 -228 474 -672 818 -1196 925 -113 23 -425 34 -534 19z m7 -289
c8 -34 -47 -816 -61 -861 -18 -56 -50 -60 -138 -20 -65 30 -553 267 -666 323
-87 43 -82 66 33 175 214 202 440 328 719 401 82 21 104 18 113 -18z m590 3
c267 -80 543 -253 711 -445 37 -42 39 -59 14 -82 -32 -29 -762 -377 -791 -377
-35 0 -60 27 -67 71 -8 60 -54 724 -54 785 0 98 13 101 187 48z m967 -880 c38
-37 85 -271 93 -455 7 -164 -5 -285 -43 -440 -28 -116 -47 -159 -73 -159 -16
0 -252 156 -618 407 -129 88 -148 112 -124 157 16 28 714 504 743 506 4 0 14
-7 22 -16z m-2304 -237 c384 -262 394 -271 354 -324 -32 -43 -703 -493 -735
-493 -32 0 -39 15 -73 150 -66 263 -59 570 19 833 18 60 31 77 59 77 11 -1
181 -110 376 -243z m811 94 c49 -50 39 -93 -38 -164 -147 -135 -118 -357 60
-454 23 -13 55 -18 117 -18 75 0 91 3 131 27 91 54 138 135 139 238 0 83 -30
149 -93 207 -77 71 -87 114 -38 164 43 42 86 40 148 -9 146 -116 208 -315 153
-493 -111 -361 -579 -444 -807 -144 -68 90 -88 151 -88 280 0 103 2 114 32
177 40 85 75 131 136 180 62 49 105 51 148 9z m600 -925 c327 -155 646 -314
658 -329 8 -10 11 -27 7 -41 -7 -28 -150 -163 -264 -248 -103 -77 -301 -177
-442 -223 -131 -42 -196 -49 -213 -23 -9 13 -4 124 18 441 33 465 36 477 94
477 16 0 80 -24 142 -54z m-720 14 c14 -21 22 -93 47 -440 34 -475 35 -466
-38 -463 -59 2 -238 61 -359 118 -52 25 -140 75 -194 112 -103 68 -301 249
-313 285 -4 13 0 27 12 39 11 10 186 99 389 198 399 194 420 201 456 151z"/>
</g>
</svg>
